# xmcd
# 
# Track frame offsets:
#     150
#     20962
#     32947
#     64815
#     332550
# 
# Disc length: 4440
# 
# Revision: 3
# Processed by: cddbd v1.5.2PL0 Copyright (c) Steve Scherf et al.
# Submitted via: fre:ac v1.0.17
# 
DISCID=45115605
DTITLE=Tommy heavenly6 - Hey my friend
DYEAR=2004
DGENRE=Rock
TTITLE0=Hey my friend
TTITLE1=Roller coaster ride→
TTITLE2=Hey my friend [Original Instrumental]
TTITLE3=No MUSIC(Fuck CCCD!)
TTITLE4=No MUSIC(Fuck CCCD!)
EXTD=
EXTT0=
EXTT1=
EXTT2=
EXTT3=
EXTT4=
PLAYORDER=
